<svg xmlns="http://www.w3.org/2000/svg" width="900" height="240" viewBox="0 0 900 240">
  <rect width="900" height="240" fill="#ffffff"/>
  <g font-family="-apple-system,BlinkMacSystemFont,Segoe UI,Roboto,Helvetica,Arial" font-size="16" fill="#111">
    <text x="24" y="40" font-size="20">Engineering Pipeline</text>
  </g>
  <g font-family="-apple-system,BlinkMacSystemFont,Segoe UI,Roboto,Helvetica,Arial" font-size="14" fill="#111" stroke="#111" stroke-width="2">
    <rect x="40" y="80" width="160" height="70" rx="10" fill="#f2f6ff"/>
    <rect x="260" y="80" width="160" height="70" rx="10" fill="#f2fff7"/>
    <rect x="480" y="80" width="160" height="70" rx="10" fill="#fff7f2"/>
    <rect x="700" y="80" width="160" height="70" rx="10" fill="#f7f2ff"/>

    <text x="85" y="122">Design</text>
    <text x="305" y="122">Build</text>
    <text x="515" y="122">Test</text>
    <text x="735" y="122">Deploy</text>

    <line x1="200" y1="115" x2="260" y2="115"/>
    <polygon points="260,115 248,108 248,122" fill="#111" stroke="none"/>
    <line x1="420" y1="115" x2="480" y2="115"/>
    <polygon points="480,115 468,108 468,122" fill="#111" stroke="none"/>
    <line x1="640" y1="115" x2="700" y2="115"/>
    <polygon points="700,115 688,108 688,122" fill="#111" stroke="none"/>
  </g>
</svg>
